<?xml version="1.0" encoding="UTF-8" standalone="no"?><svg xmlns="http://www.w3.org/2000/svg" xmlns:xlink="http://www.w3.org/1999/xlink" fill="#000000" height="217.6" preserveAspectRatio="xMidYMid meet" version="1" viewBox="80.9 103.8 264.6 217.6" width="264.6" zoomAndPan="magnify"><g><g id="change1_1"><path d="M 130.320312 155.074219 C 130.214844 155.074219 130.117188 155.171875 130.117188 155.273438 L 130.117188 316.195312 C 130.117188 316.300781 130.214844 316.398438 130.320312 316.398438 L 156.605469 316.398438 C 156.710938 316.398438 156.808594 316.300781 156.808594 316.195312 L 156.808594 155.273438 C 156.808594 155.171875 156.710938 155.074219 156.605469 155.074219 Z M 156.605469 321.398438 L 130.320312 321.398438 C 127.453125 321.398438 125.117188 319.0625 125.117188 316.195312 L 125.117188 155.273438 C 125.117188 152.40625 127.453125 150.074219 130.320312 150.074219 L 156.605469 150.074219 C 159.472656 150.074219 161.808594 152.40625 161.808594 155.273438 L 161.808594 316.195312 C 161.808594 319.0625 159.472656 321.398438 156.605469 321.398438" fill="#00c4cc"/></g><g id="change1_2"><path d="M 174.347656 316.398438 L 201.03125 316.398438 L 201.03125 191.664062 L 174.347656 191.664062 Z M 201.367188 321.398438 L 174.011719 321.398438 C 171.441406 321.398438 169.347656 319.304688 169.347656 316.734375 L 169.347656 191.328125 C 169.347656 188.757812 171.441406 186.664062 174.011719 186.664062 L 201.367188 186.664062 C 203.9375 186.664062 206.03125 188.757812 206.03125 191.328125 L 206.03125 316.734375 C 206.03125 319.304688 203.9375 321.398438 201.367188 321.398438" fill="#00c4cc"/></g><g id="change1_3"><path d="M 85.886719 316.398438 L 112.574219 316.398438 L 112.574219 196.398438 L 85.886719 196.398438 Z M 112.910156 321.398438 L 85.550781 321.398438 C 82.976562 321.398438 80.886719 319.304688 80.886719 316.734375 L 80.886719 196.0625 C 80.886719 193.492188 82.976562 191.398438 85.550781 191.398438 L 112.910156 191.398438 C 115.480469 191.398438 117.574219 193.492188 117.574219 196.0625 L 117.574219 316.734375 C 117.574219 319.304688 115.480469 321.398438 112.910156 321.398438" fill="#00c4cc"/></g><g id="change1_4"><path d="M 218.554688 316.398438 L 245.246094 316.398438 L 245.246094 237.269531 L 218.554688 237.269531 Z M 245.824219 321.398438 L 217.976562 321.398438 C 215.535156 321.398438 213.554688 319.414062 213.554688 316.980469 L 213.554688 236.691406 C 213.554688 234.253906 215.535156 232.269531 217.976562 232.269531 L 245.824219 232.269531 C 248.265625 232.269531 250.246094 234.253906 250.246094 236.691406 L 250.246094 316.980469 C 250.246094 319.414062 248.265625 321.398438 245.824219 321.398438" fill="#00c4cc"/></g><g id="change1_5"><path d="M 289.828125 321.398438 L 262.476562 321.398438 C 259.902344 321.398438 257.8125 319.304688 257.8125 316.734375 L 257.8125 212.449219 C 257.8125 211.070312 258.929688 209.949219 260.3125 209.949219 C 261.691406 209.949219 262.8125 211.070312 262.8125 212.449219 L 262.8125 316.398438 L 289.492188 316.398438 L 289.492188 232.605469 C 289.492188 231.226562 290.613281 230.105469 291.992188 230.105469 C 293.375 230.105469 294.492188 231.226562 294.492188 232.605469 L 294.492188 316.734375 C 294.492188 319.304688 292.402344 321.398438 289.828125 321.398438" fill="#00c4cc"/></g><g id="change2_1"><path d="M 275.917969 201.113281 C 265.910156 201.113281 256.910156 195.5625 252.429688 186.632812 C 245.933594 173.6875 251.175781 157.871094 264.117188 151.378906 C 267.8125 149.523438 271.769531 148.582031 275.875 148.582031 C 285.882812 148.582031 294.886719 154.132812 299.367188 163.066406 C 305.863281 176.007812 300.617188 191.816406 287.679688 198.316406 C 283.980469 200.171875 280.023438 201.113281 275.917969 201.113281 Z M 303.839844 160.824219 C 298.496094 150.1875 287.78125 143.582031 275.875 143.582031 C 270.984375 143.582031 266.273438 144.699219 261.875 146.90625 C 246.46875 154.640625 240.226562 173.464844 247.960938 188.871094 C 253.296875 199.507812 264.011719 206.113281 275.917969 206.113281 C 280.808594 206.113281 285.519531 204.992188 289.921875 202.785156 C 305.324219 195.050781 311.566406 176.230469 303.839844 160.824219" fill="#00bdd9"/></g><g id="change2_2"><path d="M 337.566406 292.039062 L 332.679688 294.492188 C 332.238281 294.714844 331.765625 294.824219 331.273438 294.824219 C 330.074219 294.824219 328.957031 294.144531 328.425781 293.082031 L 300.238281 236.933594 C 299.457031 235.367188 300.089844 233.460938 301.648438 232.679688 L 306.539062 230.222656 C 306.980469 230.003906 307.453125 229.890625 307.945312 229.890625 C 309.144531 229.890625 310.265625 230.574219 310.796875 231.632812 L 338.980469 287.785156 C 339.765625 289.347656 339.132812 291.257812 337.566406 292.039062 Z M 292.273438 227.863281 L 292.070312 227.460938 C 291.285156 225.898438 291.921875 223.988281 293.480469 223.207031 L 303.832031 218.011719 C 304.269531 217.789062 304.742188 217.679688 305.234375 217.679688 C 306.4375 217.679688 307.554688 218.363281 308.085938 219.421875 L 308.289062 219.824219 C 308.664062 220.574219 308.726562 221.433594 308.460938 222.242188 C 308.191406 223.050781 307.628906 223.699219 306.878906 224.078125 L 296.527344 229.273438 C 296.089844 229.492188 295.613281 229.605469 295.121094 229.605469 C 293.925781 229.605469 292.804688 228.921875 292.273438 227.863281 Z M 295.117188 213.144531 C 295.191406 213.105469 295.265625 213.0625 295.335938 213.027344 L 297.058594 212.160156 L 298.363281 214.765625 L 294.144531 216.882812 L 292.839844 214.28125 L 294.929688 213.230469 C 294.992188 213.199219 295.058594 213.175781 295.117188 213.144531 Z M 242.074219 191.824219 C 232.714844 173.171875 240.269531 150.378906 258.917969 141.019531 C 264.246094 138.347656 269.945312 136.988281 275.859375 136.988281 C 290.28125 136.988281 303.257812 144.988281 309.722656 157.871094 C 314.257812 166.902344 315.003906 177.164062 311.820312 186.761719 C 308.671875 196.261719 302.039062 203.976562 293.144531 208.53125 L 292.644531 208.78125 C 287.386719 211.378906 281.765625 212.703125 275.933594 212.703125 C 261.511719 212.703125 248.535156 204.703125 242.074219 191.824219 Z M 343.445312 285.542969 L 315.265625 229.390625 C 314.539062 227.945312 313.425781 226.792969 312.089844 226.011719 C 312.5625 225.351562 312.941406 224.609375 313.203125 223.8125 C 313.894531 221.738281 313.730469 219.523438 312.757812 217.585938 L 312.554688 217.179688 C 311.160156 214.402344 308.355469 212.679688 305.234375 212.679688 C 304.503906 212.679688 303.773438 212.792969 303.066406 212.988281 L 301.257812 209.382812 C 308.390625 204.164062 313.726562 196.894531 316.566406 188.335938 C 320.167969 177.472656 319.324219 165.855469 314.1875 155.628906 C 306.871094 141.046875 292.1875 131.988281 275.859375 131.988281 C 269.160156 131.988281 262.703125 133.523438 256.675781 136.550781 C 235.5625 147.144531 227.007812 172.949219 237.605469 194.066406 C 238.136719 195.128906 238.71875 196.152344 239.328125 197.152344 L 230.734375 212.402344 L 213.390625 170.066406 C 213.007812 169.128906 212.09375 168.515625 211.078125 168.515625 L 190.238281 168.515625 L 145.574219 104.867188 C 145.140625 104.246094 144.449219 103.855469 143.691406 103.808594 C 142.929688 103.757812 142.203125 104.054688 141.6875 104.609375 L 95.710938 154.5625 C 94.773438 155.578125 94.839844 157.160156 95.855469 158.09375 C 96.875 159.027344 98.453125 158.964844 99.390625 157.945312 L 143.265625 110.277344 L 186.894531 172.449219 C 187.363281 173.117188 188.125 173.515625 188.941406 173.515625 L 209.398438 173.515625 L 228.0625 219.074219 C 228.429688 219.964844 229.265625 220.5625 230.222656 220.621094 C 230.273438 220.628906 230.324219 220.628906 230.378906 220.628906 C 231.273438 220.628906 232.109375 220.144531 232.554688 219.355469 L 242.5 201.710938 C 250.527344 211.742188 262.691406 217.703125 275.933594 217.703125 C 280.089844 217.703125 284.152344 217.109375 288.074219 215.9375 L 289.902344 219.585938 C 286.878906 221.925781 285.824219 226.160156 287.601562 229.703125 L 287.804688 230.105469 C 289.171875 232.835938 291.90625 234.535156 294.964844 234.597656 C 294.789062 236.117188 295.035156 237.703125 295.769531 239.175781 L 323.957031 295.324219 C 325.351562 298.101562 328.152344 299.824219 331.273438 299.824219 C 332.535156 299.824219 333.796875 299.527344 334.921875 298.964844 L 339.8125 296.507812 C 343.835938 294.484375 345.46875 289.566406 343.445312 285.542969" fill="#00bdd9"/></g></g></svg>