<?xml version="1.0" encoding="UTF-8"?>
<svg width="500px" height="109px" viewBox="0 0 500 109" version="1.1" xmlns="http://www.w3.org/2000/svg" xmlns:xlink="http://www.w3.org/1999/xlink">
    <title>logotype</title>
    <g id="Botalite-brand" stroke="none" stroke-width="1" fill="none" fill-rule="evenodd">
        <g id="Logotipo" transform="translate(-470.000000, -346.000000)" fill="#FFFFFF">
            <g id="Group-16-Copy-3" transform="translate(470.000000, 346.000000)">
                <path d="M200.088374,17.0635979 L178.383354,17.0635979 L178.488272,85.173941 C178.488272,92.3948719 180.621615,98.1014502 184.897045,102.293676 C189.163732,106.490342 194.999825,108.582014 202.39221,108.582014 C207.288408,108.582014 211.082961,107.902554 213.771498,106.534751 L213.771498,88.1049461 C211.655641,88.5890061 209.740878,88.8332565 208.009723,88.8332565 C202.728823,88.8332565 200.088374,86.2974929 200.088374,81.2259658 L200.088374,54.0164677 L214.060024,54.0164677 L214.060024,34.5563697 L200.088374,34.5563697 L200.088374,17.0635979 Z" id="Fill-1"></path>
                <path d="M404.841441,17.0635979 L383.13642,17.0635979 L383.241339,85.173941 C383.241339,92.3948719 385.374682,98.1014502 389.650112,102.293676 C393.916799,106.490342 399.752892,108.582014 407.145276,108.582014 C412.041474,108.582014 415.836028,107.902554 418.524565,106.534751 L418.524565,88.1049461 C416.408708,88.5890061 414.493945,88.8332565 412.762789,88.8332565 C407.48189,88.8332565 404.841441,86.2974929 404.841441,81.2259658 L404.841441,54.0164677 L418.813091,54.0164677 L418.813091,34.5563697 L404.841441,34.5563697 L404.841441,17.0635979 Z" id="Fill-3"></path>
                <path d="M61.7596963,84.1551009 C58.6282929,87.2970241 54.7995601,88.8679858 50.273498,88.8679858 C45.7474359,88.8679858 41.8967745,87.2970241 38.7171282,84.1551009 C35.5374818,81.0175781 33.9498515,76.595123 33.9498515,70.8921363 C33.9498515,65.0923395 35.5155532,60.6698845 38.642571,57.6247712 C41.7739744,54.5840584 45.6509501,53.0615017 50.273498,53.0615017 C54.9004317,53.0615017 58.7467073,54.5840584 61.8342535,57.6247712 C64.9130283,60.6698845 66.4568015,65.0923395 66.4568015,70.8921363 C66.4568015,76.595123 64.8910998,81.0175781 61.7596963,84.1551009 M42.326575,35.6621115 C38.5723995,37.3078808 35.8751822,39.3364896 34.239309,41.7523381 L34.239309,0.000842379212 L22.4022531,0.000842379212 L12.7098139,0.000842379212 L0,0.000842379212 L0,19.2836264 L12.7098139,19.2836264 L12.7098139,107.087101 L33.9498515,107.087101 L33.9498515,98.8702149 C35.6822106,101.765713 38.3311849,104.111154 41.8967745,105.897738 C45.4579784,107.688722 49.5498544,108.582014 54.176788,108.582014 C64.1937704,108.582014 72.4038366,105.030849 78.8113722,97.9241175 C85.214522,90.8217868 88.416097,81.765655 88.416097,70.7469213 C88.416097,59.7281876 85.4074937,50.7160604 79.3859014,43.7105396 C73.364309,36.7050188 65.2507287,33.197858 55.0407747,33.197858 C50.3217409,33.197858 46.0851363,34.0207426 42.326575,35.6621115 Z" id="Fill-5"></path>
                <path d="M142.517269,83.7761479 C139.397293,86.8538966 135.582532,88.3905819 131.072986,88.3905819 C126.659574,88.3905819 122.866661,86.8276284 119.698618,83.7017215 C116.534945,80.5801927 114.948738,76.1802817 114.948738,70.5063667 C114.948738,64.8324516 116.534945,60.4588088 119.698618,57.3810601 C122.866661,54.3076895 126.659574,52.7666261 131.072986,52.7666261 C135.582532,52.7666261 139.397293,54.2814213 142.517269,57.3110118 C145.632876,60.3362242 147.192864,64.7361352 147.192864,70.5063667 C147.192864,76.2765982 145.632876,80.6983992 142.517269,83.7761479 M131.072986,32.5751939 C120.323487,32.5751939 111.300026,36.160793 104.006972,43.3188571 C96.713918,50.4856773 93.0695758,59.5438024 93.0695758,70.5063667 C93.0695758,81.4689309 96.713918,90.5533242 104.006972,97.7639246 C111.300026,104.974525 120.323487,108.582014 131.072986,108.582014 C141.914248,108.582014 150.959558,105.000793 158.204545,97.8383509 C165.453902,90.6759088 169.076396,81.5652474 169.076396,70.5063667 C169.076396,59.451864 165.453902,50.3630927 158.204545,43.2488088 C150.959558,36.1345249 141.914248,32.5751939 131.072986,32.5751939" id="Fill-8"></path>
                <polygon id="Fill-10" points="307.1296 107.030855 330.396994 107.030855 330.396994 0.000842379212 307.1296 0.000842379212"></polygon>
                <polygon id="Fill-12" points="345.90859 107.030855 369.175984 107.030855 369.175984 34.1263535 345.90859 34.1263535"></polygon>
                <path d="M357.39389,0.000842379212 C353.836857,0.000842379212 350.77448,1.28695049 348.211258,3.85017295 C345.639042,6.42238917 344.35743,9.53423117 344.35743,13.1856989 C344.35743,16.8416636 345.639042,19.9535056 348.211258,22.5167281 C350.77448,25.0889443 353.836857,26.3705555 357.39389,26.3705555 C361.045358,26.3705555 364.184181,25.0889443 366.801366,22.5167281 C369.418551,19.9535056 370.727144,16.8416636 370.727144,13.1856989 C370.727144,9.53423117 369.418551,6.42238917 366.801366,3.85017295 C364.184181,1.28695049 361.045358,0.000842379212 357.39389,0.000842379212" id="Fill-13"></path>
                <path d="M267.529132,83.9537392 C264.409758,87.22205 260.616043,88.8540178 256.139285,88.8540178 C251.662527,88.8540178 247.864462,87.2001738 244.749439,83.8881105 C241.630065,80.5804225 240.072554,76.1001679 240.072554,70.4473465 C240.072554,64.7989005 241.630065,60.3623983 244.749439,57.1422153 C247.864462,53.917657 251.662527,52.3075655 256.139285,52.3075655 C260.616043,52.3075655 264.409758,53.9439085 267.529132,57.207844 C270.644155,60.4717795 272.201666,64.930158 272.201666,70.578604 C272.201666,76.2314253 270.644155,80.6898037 267.529132,83.9537392 L267.529132,83.9537392 Z M272.201666,44.0995989 C270.09598,40.6562782 267.085371,37.8736201 263.182892,35.7559997 C259.276061,33.6383793 254.734044,32.5751939 249.556842,32.5751939 C243.500819,32.5751939 238.010374,34.1240319 233.094206,37.2129575 C228.18239,40.3018831 224.292962,44.716509 221.443325,50.45246 C218.589337,56.1927863 217.162343,62.8562901 217.162343,70.4473465 C217.162343,78.038403 218.589337,84.7281583 221.443325,90.5078618 C224.292962,96.2919406 228.18239,100.750319 233.094206,103.882997 C238.010374,107.015675 243.452963,108.582014 249.421973,108.582014 C254.603527,108.582014 259.145543,107.523204 263.052374,105.405584 C266.954854,103.287963 270.008968,100.505305 272.201666,97.0619843 L272.201666,107.212943 L294.720323,107.212943 L294.720323,33.6383793 L272.201666,33.6383793 L272.201666,44.0995989 Z" id="Fill-14"></path>
                <path d="M453.962919,53.6334743 C456.45133,51.1336243 459.798265,49.8858884 464.01244,49.8858884 C468.701635,49.8858884 472.218532,51.0854661 474.563129,53.4889996 C476.907727,55.892533 478.175901,58.7338686 478.367653,61.9998721 L449.796682,61.9998721 C450.084309,58.9221235 451.47015,56.1333242 453.962919,53.6334743 M465.590031,89.9798035 C463.402321,89.7258783 461.384573,89.3756366 459.554218,88.9859927 C457.688999,88.3249116 455.971951,87.3311008 454.39436,86.0133166 C451.234818,83.368992 449.556993,80.0767203 449.369599,76.1321235 L499.041949,76.1321235 C499.329576,75.2652753 499.47339,73.0105946 499.47339,69.3549472 C499.47339,57.8188622 496.287701,48.8001392 489.925038,42.3119123 C483.558017,35.8236854 474.828967,32.5751939 463.724812,32.5751939 C454.054437,32.5751939 445.704531,36.0863666 438.670738,43.1043341 C431.636945,50.1266795 428.120049,59.2110728 428.120049,70.361892 C428.120049,81.9986714 431.732821,91.2756976 438.958365,98.1973486 C446.18391,105.123378 454.965256,108.582014 465.306762,108.582014 C469.982884,108.582014 478.332789,106.563746 478.332789,106.563746 L478.620416,88.6576412 C473.722037,90.0673639 469.242026,90.3957154 465.590031,89.9798035" id="Fill-15"></path>
            </g>
        </g>
    </g>
</svg>