<?xml version="1.0" encoding="UTF-8"?><svg xmlns="http://www.w3.org/2000/svg" xmlns:xlink="http://www.w3.org/1999/xlink" height="187.9" preserveAspectRatio="xMidYMid meet" version="1.0" viewBox="100.0 156.1 300.0 187.9" width="300.0" zoomAndPan="magnify"><g><g id="change1_1"><path d="M 400 156.054688 L 100 156.054688 L 100 343.945312 L 400 343.945312 Z M 398.238281 157.816406 L 398.238281 342.183594 L 101.761719 342.183594 L 101.761719 157.816406 L 398.238281 157.816406" fill="inherit"/></g><g id="change1_2"><path d="M 400 343.945312 L 100 343.945312 L 100 325.578125 L 400 325.578125 L 400 343.945312" fill="inherit"/></g><g id="change2_1"><path d="M 388.359375 331.445312 L 388.359375 332.191406 L 389.683594 332.191406 L 388.085938 333.785156 L 388.613281 334.3125 L 390.210938 332.71875 L 390.210938 334.039062 L 390.953125 334.039062 L 390.953125 331.445312 L 388.359375 331.445312" fill="#fff"/></g><g id="change2_2"><path d="M 386.738281 335.132812 L 385.066406 336.804688 L 385.066406 335.484375 L 384.324219 335.484375 L 384.324219 338.078125 L 386.917969 338.078125 L 386.917969 337.332031 L 385.59375 337.332031 L 387.265625 335.660156 L 386.738281 335.132812" fill="#fff"/></g><g id="change2_3"><path d="M 375.140625 336.433594 C 374.214844 336.433594 373.464844 335.683594 373.464844 334.757812 C 373.464844 333.835938 374.214844 333.085938 375.140625 333.085938 C 376.0625 333.085938 376.8125 333.835938 376.8125 334.757812 C 376.8125 335.683594 376.0625 336.433594 375.140625 336.433594 Z M 377.667969 334.371094 C 377.601562 333.957031 377.441406 333.574219 377.203125 333.253906 L 377.519531 332.9375 L 376.964844 332.382812 L 376.648438 332.695312 C 376.324219 332.460938 375.945312 332.296875 375.53125 332.234375 L 375.53125 331.789062 L 374.746094 331.789062 L 374.746094 332.234375 C 374.332031 332.296875 373.953125 332.460938 373.628906 332.695312 L 373.316406 332.382812 L 372.761719 332.9375 L 373.074219 333.253906 C 372.839844 333.574219 372.675781 333.957031 372.609375 334.371094 L 372.167969 334.371094 L 372.167969 335.15625 L 372.609375 335.15625 C 372.675781 335.566406 372.839844 335.949219 373.074219 336.273438 L 372.761719 336.585938 L 373.316406 337.140625 L 373.628906 336.828125 C 373.953125 337.0625 374.332031 337.226562 374.746094 337.289062 L 374.746094 337.734375 L 375.53125 337.734375 L 375.53125 337.289062 C 375.945312 337.226562 376.324219 337.0625 376.648438 336.828125 L 376.964844 337.140625 L 377.519531 336.585938 L 377.203125 336.273438 C 377.441406 335.949219 377.601562 335.566406 377.667969 335.15625 L 378.109375 335.15625 L 378.109375 334.371094 L 377.667969 334.371094" fill="#fff"/></g><g id="change2_4"><path d="M 117.113281 334.761719 L 111.96875 331.789062 L 111.96875 337.734375 Z M 117.113281 334.761719" fill="#fff"/></g><g id="change2_5"><path d="M 124.875 337.734375 L 123.609375 337.734375 L 123.609375 331.789062 L 124.875 331.789062 L 124.875 337.734375" fill="#fff"/></g><g id="change2_6"><path d="M 127.207031 337.734375 L 125.941406 337.734375 L 125.941406 331.789062 L 127.207031 331.789062 L 127.207031 337.734375" fill="#fff"/></g><g id="change2_7"><path d="M 139.644531 337.734375 L 133.703125 337.734375 L 133.703125 331.789062 L 139.644531 331.789062 L 139.644531 337.734375" fill="#fff"/></g><g id="change2_8"><path d="M 363.449219 333.808594 L 363.449219 331.789062 L 361.285156 333.476562 L 360.054688 333.476562 L 360.054688 336.078125 L 361.328125 336.078125 L 363.449219 337.734375 L 363.449219 335.71875 C 363.816406 335.550781 364.070312 335.1875 364.070312 334.761719 C 364.070312 334.335938 363.816406 333.972656 363.449219 333.808594" fill="#fff"/></g><g id="change2_9"><path d="M 364.132812 332.707031 L 363.804688 333.046875 C 364.289062 333.519531 364.558594 334.128906 364.558594 334.761719 C 364.558594 335.386719 364.296875 335.96875 363.804688 336.453125 L 364.132812 336.789062 C 364.722656 336.21875 365.03125 335.515625 365.03125 334.761719 C 365.03125 334 364.714844 333.269531 364.132812 332.707031" fill="#fff"/></g><g id="change2_10"><path d="M 364.789062 332.070312 L 364.457031 332.410156 C 365.125 333.0625 365.492188 333.898438 365.492188 334.769531 C 365.492188 335.625 365.136719 336.429688 364.457031 337.085938 L 364.789062 337.425781 C 365.558594 336.675781 365.964844 335.757812 365.96875 334.769531 C 365.96875 333.769531 365.546875 332.8125 364.789062 332.070312" fill="#fff"/></g><g id="change3_1"><path d="M 345.277344 336.253906 L 154.722656 336.253906 L 154.722656 333.269531 L 345.277344 333.269531 L 345.277344 336.253906" fill="#333"/></g><g id="change2_11"><path d="M 239.324219 336.253906 L 154.722656 336.253906 L 154.722656 333.269531 L 239.324219 333.269531 L 239.324219 336.253906" fill="#fff"/></g></g></svg>